<!--?xml version="1.0" standalone="no"?-->
              <svg id="sw-js-blob-svg" viewBox="0 0 100 100" xmlns="http://www.w3.org/2000/svg" version="1.1">
                    <defs> 
                        <linearGradient id="sw-gradient" x1="0" x2="1" y1="1" y2="0">
                            <stop id="stop1" stop-color="rgba(231, 111, 81, 1)" offset="0%"></stop>
                            <stop id="stop2" stop-color="rgba(251, 168, 31, 1)" offset="100%"></stop>
                        </linearGradient>
                    </defs>
                <path fill="url(#sw-gradient)" d="M24,-33.5C31.3,-27.7,37.7,-21,41.2,-12.8C44.7,-4.6,45.3,5.2,41.6,12.5C37.9,19.9,29.8,24.9,22.1,28.7C14.5,32.6,7.2,35.3,-0.3,35.6C-7.8,36,-15.6,34.1,-21,29.6C-26.5,25,-29.6,17.8,-33.3,10C-37,2.1,-41.5,-6.4,-39.3,-12.7C-37.2,-19.1,-28.6,-23.3,-21,-29.1C-13.3,-34.8,-6.7,-42.2,0.8,-43.3C8.3,-44.5,16.6,-39.4,24,-33.5Z" width="100%" height="100%" transform="translate(50 50)" stroke-width="0" style="transition: all 0.3s ease 0s;" stroke="url(#sw-gradient)"></path>
              </svg>