<svg width="56" height="16" viewBox="0 0 56 16" fill="none" xmlns="http://www.w3.org/2000/svg">
<path d="M24.832 1.08984C25.0977 1.08984 25.2852 1.15234 25.3945 1.27734C25.5117 1.39453 25.5703 1.59766 25.5703 1.88672C25.5703 2.17578 25.5117 2.38281 25.3945 2.50781C25.2852 2.625 25.0977 2.68359 24.832 2.68359H22.4766V11.0977C22.4766 12.4648 22.0781 13.5 21.2812 14.2031C20.4844 14.9062 19.3203 15.2578 17.7891 15.2578C16.8984 15.2578 16.0898 15.1016 15.3633 14.7891C14.6445 14.4688 14.0352 14.0352 13.5352 13.4883C13.4102 13.3398 13.3477 13.1406 13.3477 12.8906V9.55078C13.3477 9.27734 13.4141 9.08203 13.5469 8.96484C13.6797 8.84766 13.9062 8.78906 14.2266 8.78906C14.5469 8.78906 14.7734 8.84766 14.9062 8.96484C15.0391 9.08203 15.1055 9.27734 15.1055 9.55078V12.6445C15.7617 13.2305 16.6602 13.5234 17.8008 13.5234C18.8242 13.5234 19.5664 13.2969 20.0273 12.8438C20.4883 12.3906 20.7188 11.6914 20.7188 10.7461V2.68359H16.7227C16.457 2.68359 16.2656 2.625 16.1484 2.50781C16.0391 2.38281 15.9844 2.17578 15.9844 1.88672C15.9844 1.59766 16.0391 1.39453 16.1484 1.27734C16.2656 1.15234 16.457 1.08984 16.7227 1.08984H24.832Z" fill="#F4744E"/>
<path d="M39.3398 1.08984C39.6055 1.08984 39.793 1.15234 39.9023 1.27734C40.0195 1.39453 40.0781 1.59766 40.0781 1.88672C40.0781 2.17578 40.0195 2.38281 39.9023 2.50781C39.793 2.625 39.6055 2.68359 39.3398 2.68359H38.7539L39.0586 13.4062H39.6914C39.957 13.4062 40.1445 13.4688 40.2539 13.5938C40.3711 13.7109 40.4297 13.9141 40.4297 14.2031C40.4297 14.4922 40.3711 14.6992 40.2539 14.8242C40.1445 14.9414 39.957 15 39.6914 15H36.0117C35.7461 15 35.5547 14.9414 35.4375 14.8242C35.3281 14.6992 35.2734 14.4922 35.2734 14.2031C35.2734 13.9141 35.3281 13.7109 35.4375 13.5938C35.5547 13.4688 35.7461 13.4062 36.0117 13.4062H37.3125L37.0547 3.80859L34.6641 10.4883C34.5625 10.7617 34.4258 10.957 34.2539 11.0742C34.0898 11.1914 33.8672 11.25 33.5859 11.25C33.3047 11.25 33.0781 11.1914 32.9062 11.0742C32.7422 10.957 32.6094 10.7617 32.5078 10.4883L30.1055 3.80859L29.8594 13.4062H31.1602C31.4258 13.4062 31.6133 13.4688 31.7227 13.5938C31.8398 13.7109 31.8984 13.9141 31.8984 14.2031C31.8984 14.4922 31.8398 14.6992 31.7227 14.8242C31.6133 14.9414 31.4258 15 31.1602 15H27.4805C27.2148 15 27.0234 14.9414 26.9062 14.8242C26.7969 14.6992 26.7422 14.4922 26.7422 14.2031C26.7422 13.9141 26.7969 13.7109 26.9062 13.5938C27.0234 13.4688 27.2148 13.4062 27.4805 13.4062H28.1133L28.4062 2.68359H27.832C27.5664 2.68359 27.375 2.625 27.2578 2.50781C27.1484 2.38281 27.0938 2.17578 27.0938 1.88672C27.0938 1.59766 27.1484 1.39453 27.2578 1.27734C27.375 1.15234 27.5664 1.08984 27.832 1.08984H30.3047C30.4922 1.08984 30.6406 1.12109 30.75 1.18359C30.8594 1.24609 30.9375 1.34375 30.9844 1.47656L33.5859 8.61328L36.1758 1.47656C36.2617 1.21875 36.4922 1.08984 36.8672 1.08984H39.3398Z" fill="#F4744E"/>
<path d="M48.6455 0.941406C49.835 0.941406 50.752 1.21387 51.3965 1.75879C52.0469 2.29785 52.3721 3.10938 52.3721 4.19336C52.3721 4.26953 52.3662 4.39551 52.3545 4.57129L52.3105 5.22168C52.3047 5.28027 52.3018 5.36816 52.3018 5.48535C52.3018 6.16504 52.4951 6.68945 52.8818 7.05859C53.2686 7.42773 53.8691 7.6123 54.6836 7.6123C54.8828 7.6123 55.0234 7.66211 55.1055 7.76172C55.1934 7.85547 55.2373 8.0166 55.2373 8.24512C55.2373 8.47363 55.1934 8.6377 55.1055 8.7373C55.0234 8.83105 54.8828 8.87793 54.6836 8.87793C53.8398 8.87793 53.2217 9.04492 52.8291 9.37891C52.4365 9.70703 52.2402 10.2021 52.2402 10.8643C52.2402 10.9346 52.2461 11.0518 52.2578 11.2158L52.3545 12.2969C52.3662 12.4023 52.3721 12.5576 52.3721 12.7627C52.3721 13.8174 52.0439 14.6084 51.3877 15.1357C50.7373 15.6631 49.8232 15.9268 48.6455 15.9268C48.4463 15.9268 48.3027 15.877 48.2148 15.7773C48.1328 15.6836 48.0918 15.5225 48.0918 15.2939C48.0918 15.0654 48.1328 14.9014 48.2148 14.8018C48.3027 14.708 48.4463 14.6611 48.6455 14.6611C49.4775 14.6611 50.084 14.4912 50.4648 14.1514C50.8516 13.8115 51.0449 13.2695 51.0449 12.5254C51.0449 12.3789 51.042 12.2676 51.0361 12.1914L50.9658 11.1279C50.96 11.0635 50.957 10.9668 50.957 10.8379C50.957 10.1934 51.1211 9.66309 51.4492 9.24707C51.7832 8.8252 52.3193 8.50586 53.0576 8.28906V8.20117C52.3135 7.89648 51.7773 7.51562 51.4492 7.05859C51.127 6.5957 50.9805 6.0127 51.0098 5.30957L51.0361 4.67676C51.0596 4.09082 50.998 3.61914 50.8516 3.26172C50.7109 2.89844 50.4619 2.63184 50.1045 2.46191C49.7529 2.29199 49.2666 2.20703 48.6455 2.20703C48.4463 2.20703 48.3027 2.16016 48.2148 2.06641C48.1328 1.9668 48.0918 1.80273 48.0918 1.57422C48.0918 1.3457 48.1328 1.18457 48.2148 1.09082C48.3027 0.991211 48.4463 0.941406 48.6455 0.941406Z" fill="white"/>
<path d="M7.14746 0.941406C7.34668 0.941406 7.4873 0.991211 7.56934 1.09082C7.65723 1.18457 7.70117 1.3457 7.70117 1.57422C7.70117 1.80273 7.65723 1.9668 7.56934 2.06641C7.4873 2.16016 7.34668 2.20703 7.14746 2.20703C6.52637 2.20703 6.03711 2.29199 5.67969 2.46191C5.32812 2.63184 5.0791 2.89844 4.93262 3.26172C4.79199 3.61914 4.7334 4.09082 4.75684 4.67676L4.7832 5.30957C4.8125 6.0127 4.66309 6.5957 4.33496 7.05859C4.0127 7.51562 3.47949 7.89648 2.73535 8.20117V8.28906C3.47363 8.50586 4.00684 8.8252 4.33496 9.24707C4.66895 9.66309 4.83594 10.1934 4.83594 10.8379C4.83594 10.9668 4.83301 11.0635 4.82715 11.1279L4.75684 12.1914C4.75098 12.2676 4.74805 12.3789 4.74805 12.5254C4.74805 13.2695 4.93848 13.8115 5.31934 14.1514C5.70605 14.4912 6.31543 14.6611 7.14746 14.6611C7.34668 14.6611 7.4873 14.708 7.56934 14.8018C7.65723 14.9014 7.70117 15.0654 7.70117 15.2939C7.70117 15.5225 7.65723 15.6836 7.56934 15.7773C7.4873 15.877 7.34668 15.9268 7.14746 15.9268C5.96973 15.9268 5.05273 15.6631 4.39648 15.1357C3.74609 14.6084 3.4209 13.8174 3.4209 12.7627C3.4209 12.5576 3.42676 12.4023 3.43848 12.2969L3.53516 11.2158C3.54688 11.0518 3.55273 10.9346 3.55273 10.8643C3.55273 10.2021 3.35645 9.70703 2.96387 9.37891C2.57129 9.04492 1.95312 8.87793 1.10938 8.87793C0.910156 8.87793 0.766602 8.83105 0.678711 8.7373C0.59668 8.6377 0.555664 8.47363 0.555664 8.24512C0.555664 8.0166 0.59668 7.85547 0.678711 7.76172C0.766602 7.66211 0.910156 7.6123 1.10938 7.6123C1.92383 7.6123 2.52441 7.42773 2.91113 7.05859C3.29785 6.68945 3.49121 6.16504 3.49121 5.48535C3.49121 5.36816 3.48828 5.28027 3.48242 5.22168L3.43848 4.57129C3.42676 4.39551 3.4209 4.26953 3.4209 4.19336C3.4209 3.10938 3.74316 2.29785 4.3877 1.75879C5.03809 1.21387 5.95801 0.941406 7.14746 0.941406Z" fill="white"/>
</svg>
